<?xml version="1.0" encoding="utf-8"?>
<svg version="1.1" xmlns:xlink="http://www.w3.org/1999/xlink" width="124px" height="10px" preserveAspectRatio="xMinYMid meet" viewBox="876 656  124 8" xmlns="http://www.w3.org/2000/svg">
  <path d="M 880.5 694.5  A 1 1 0 0 0 881.5 693.5 L 881.5 665  A 5 5 0 0 1 886.5 660.5 L 990 660.5  A 5 5 0 0 1 995.5 665 L 995.5 951  A 3 3 0 0 1 998.5 954 A 3 3 0 0 1 995.5 957 L 995.5 968  A 3 3 0 0 1 998.5 971 A 3 3 0 0 1 995.5 974 L 995.5 986  A 5 5 0 0 1 990.5 991.5 L 835 991.5  A 5 5 0 0 0 830.5 996.5 L 830.5 1006  " stroke-width="1" stroke="#027db4" fill="none" />
  <path d="M 824.2 1005  L 830.5 1011  L 836.8 1005  L 824.2 1005  Z " fill-rule="nonzero" fill="#027db4" stroke="none" />
</svg>