<?xml version="1.0" encoding="utf-8"?>
<svg version="1.1" xmlns:xlink="http://www.w3.org/1999/xlink" width="377px" height="10px" preserveAspectRatio="xMinYMid meet" viewBox="940 765  377 8" xmlns="http://www.w3.org/2000/svg">
  <path d="M 940 769.5  L 992 769.5  A 3 3 0 0 1 995 766.5 A 3 3 0 0 1 998 769.5 L 1018 769.5  A 3 3 0 0 1 1021 766.5 A 3 3 0 0 1 1024 769.5 L 1042 769.5  A 3 3 0 0 1 1045 766.5 A 3 3 0 0 1 1048 769.5 L 1136 769.5  A 3 3 0 0 1 1139 766.5 A 3 3 0 0 1 1142 769.5 L 1307 769.5  A 5 5 0 0 1 1312.5 774.5 L 1312.5 1562  A 5 5 0 0 1 1307.5 1567.5 L 217 1567.5  A 5 5 0 0 0 212.5 1572.5 L 212.5 1606  " stroke-width="1" stroke="#027db4" fill="none" />
  <path d="M 206.2 1605  L 212.5 1611  L 218.8 1605  L 206.2 1605  Z " fill-rule="nonzero" fill="#027db4" stroke="none" />
</svg>