<?xml version="1.0" encoding="utf-8"?>
<svg version="1.1" xmlns:xlink="http://www.w3.org/1999/xlink" width="18px" height="19px" preserveAspectRatio="xMidYMin meet" viewBox="513 1598  16 19" xmlns="http://www.w3.org/2000/svg">
  <path d="M 930 806.5  L 992 806.5  A 3 3 0 0 1 995 803.5 A 3 3 0 0 1 998 806.5 L 1018 806.5  A 3 3 0 0 1 1021 803.5 A 3 3 0 0 1 1024 806.5 L 1042 806.5  A 3 3 0 0 1 1045 803.5 A 3 3 0 0 1 1048 806.5 L 1136 806.5  A 3 3 0 0 1 1139 803.5 A 3 3 0 0 1 1142 806.5 L 1285 806.5  A 5 5 0 0 1 1290.5 811 L 1290.5 1564  A 3 3 0 0 1 1293.5 1567 A 3 3 0 0 1 1290.5 1570 L 1290.5 1586  A 5 5 0 0 1 1285.5 1591.5 L 526 1591.5  A 5 5 0 0 0 521.5 1596.5 L 521.5 1606  " stroke-width="1" stroke="#027db4" fill="none" />
  <path d="M 515.2 1605  L 521.5 1611  L 527.8 1605  L 515.2 1605  Z " fill-rule="nonzero" fill="#027db4" stroke="none" />
</svg>