<?xml version="1.0" encoding="utf-8"?>
<svg version="1.1" xmlns:xlink="http://www.w3.org/1999/xlink" width="215px" height="10px" preserveAspectRatio="xMinYMid meet" viewBox="929 696  215 8" xmlns="http://www.w3.org/2000/svg">
  <path d="M 934 697.5  A 3 3 0 0 0 937 700.5 L 992 700.5  A 3 3 0 0 1 995 697.5 A 3 3 0 0 1 998 700.5 L 1018 700.5  A 3 3 0 0 1 1021 697.5 A 3 3 0 0 1 1024 700.5 L 1042 700.5  A 3 3 0 0 1 1045 697.5 A 3 3 0 0 1 1048 700.5 L 1134 700.5  A 5 5 0 0 1 1139.5 705.5 L 1139.5 1007  " stroke-width="1" stroke="#027db4" fill="none" />
  <path d="M 1133.2 1006  L 1139.5 1012  L 1145.8 1006  L 1133.2 1006  Z " fill-rule="nonzero" fill="#027db4" stroke="none" />
</svg>