<?xml version="1.0" encoding="utf-8"?>
<svg version="1.1" xmlns:xlink="http://www.w3.org/1999/xlink" width="10px" height="52px" preserveAspectRatio="xMidYMin meet" viewBox="677 3202  8 52" xmlns="http://www.w3.org/2000/svg">
  <path d="M 480.5 2267.5  A 1 1 0 0 1 479.5 2268.5 L 431 2268.5  A 5 5 0 0 0 426.5 2273.5 L 426.5 2463  A 5 5 0 0 1 421.5 2468.5 L 64 2468.5  A 5 5 0 0 0 59.5 2473.5 L 59.5 3202  A 5 5 0 0 0 64.5 3207.5 L 676 3207.5  A 5 5 0 0 1 681.5 3212.5 L 681.5 3249  " stroke-width="1" stroke="#027db4" fill="none" />
  <path d="M 675.2 3248  L 681.5 3254  L 687.8 3248  L 675.2 3248  Z " fill-rule="nonzero" fill="#027db4" stroke="none" />
</svg>