<?xml version="1.0" encoding="utf-8"?>
<svg version="1.1" xmlns:xlink="http://www.w3.org/1999/xlink" width="10px" height="67px" preserveAspectRatio="xMidYMin meet" viewBox="769 1236  8 67" xmlns="http://www.w3.org/2000/svg">
  <path d="M 205.5 1068  L 205.5 1293  A 5 5 0 0 0 210 1298.5 L 385 1298.5  A 3 3 0 0 1 388 1295.5 A 3 3 0 0 1 391 1298.5 L 493 1298.5  A 3 3 0 0 1 496 1295.5 A 3 3 0 0 1 499 1298.5 L 768 1298.5  A 5 5 0 0 0 773.5 1293.5 L 773.5 1246  A 5 5 0 0 1 778.5 1241.5 L 861 1241.5  " stroke-width="1" stroke-dasharray="9,4" stroke="#027db4" fill="none" />
  <path d="M 860 1247.8  L 866 1241.5  L 860 1235.2  L 860 1247.8  Z " fill-rule="nonzero" fill="#027db4" stroke="none" />
</svg>