<?xml version="1.0" encoding="utf-8"?>
<svg version="1.1" xmlns:xlink="http://www.w3.org/1999/xlink" width="22px" height="10px" preserveAspectRatio="xMinYMid meet" viewBox="809 1812  22 8" xmlns="http://www.w3.org/2000/svg">
  <path d="M 809 1816.5  L 821 1816.5  A 5 5 0 0 0 826.5 1811 L 826.5 1358  A 3 3 0 0 0 829.5 1355 A 3 3 0 0 0 826.5 1352 L 826.5 1326  A 3 3 0 0 0 829.5 1323 A 3 3 0 0 0 826.5 1320 L 826.5 1301  A 3 3 0 0 0 829.5 1298 A 3 3 0 0 0 826.5 1295 L 826.5 1244  A 3 3 0 0 0 829.5 1241 A 3 3 0 0 0 826.5 1238 L 826.5 858  A 5 5 0 0 1 831.5 853.5 L 861 853.5  " stroke-width="1" stroke-dasharray="9,4" stroke="#027db4" fill="none" />
  <path d="M 860 859.8  L 866 853.5  L 860 847.2  L 860 859.8  Z " fill-rule="nonzero" fill="#027db4" stroke="none" />
</svg>