<?xml version="1.0" encoding="utf-8"?>
<svg version="1.1" xmlns:xlink="http://www.w3.org/1999/xlink" width="45px" height="10px" preserveAspectRatio="xMinYMid meet" viewBox="1060 849  45 8" xmlns="http://www.w3.org/2000/svg">
  <path d="M 1051 1816.5  L 1060 1816.5  A 5 5 0 0 0 1065.5 1811 L 1065.5 1358  A 3 3 0 0 0 1068.5 1355 A 3 3 0 0 0 1065.5 1352 L 1065.5 1244  A 3 3 0 0 0 1068.5 1241 A 3 3 0 0 0 1065.5 1238 L 1065.5 858  A 5 5 0 0 1 1070.5 853.5 L 1100 853.5  " stroke-width="1" stroke-dasharray="9,4" stroke="#027db4" fill="none" />
  <path d="M 1099 859.8  L 1105 853.5  L 1099 847.2  L 1099 859.8  Z " fill-rule="nonzero" fill="#027db4" stroke="none" />
</svg>