<?xml version="1.0" encoding="utf-8"?>
<svg version="1.1" xmlns:xlink="http://www.w3.org/1999/xlink" width="18px" height="19px" preserveAspectRatio="xMidYMin meet" viewBox="1133 1538  16 19" xmlns="http://www.w3.org/2000/svg">
  <path d="M 323.5 1053.5  A 1 1 0 0 0 324.5 1054.5 L 354 1054.5  A 5 5 0 0 1 359.5 1059 L 359.5 1506  A 3 3 0 0 1 362.5 1509 A 3 3 0 0 1 359.5 1512 L 359.5 1603  A 5 5 0 0 0 364.5 1608.5 L 1136 1608.5  A 5 5 0 0 0 1141.5 1603.5 L 1141.5 1549  " stroke-width="1" stroke="#027db4" fill="none" />
  <path d="M 1147.8 1550  L 1141.5 1544  L 1135.2 1550  L 1147.8 1550  Z " fill-rule="nonzero" fill="#027db4" stroke="none" />
</svg>