<?xml version="1.0" encoding="utf-8"?>
<svg version="1.1" xmlns:xlink="http://www.w3.org/1999/xlink" width="48px" height="10px" preserveAspectRatio="xMinYMid meet" viewBox="633 1252  48 8" xmlns="http://www.w3.org/2000/svg">
  <path d="M 633 1256.5  L 671 1256.5  A 5 5 0 0 1 676.5 1261 L 676.5 1561  A 3 3 0 0 1 679.5 1564 A 3 3 0 0 1 676.5 1567 L 676.5 1584  A 5 5 0 0 0 681.5 1589.5 L 980 1589.5  A 5 5 0 0 0 985.5 1584.5 L 985.5 1418  A 5 5 0 0 1 990.5 1413.5 L 1009 1413.5  " stroke-width="1" stroke="#027db4" fill="none" />
  <path d="M 1008 1419.8  L 1014 1413.5  L 1008 1407.2  L 1008 1419.8  Z " fill-rule="nonzero" fill="#027db4" stroke="none" />
</svg>