<?xml version="1.0" encoding="utf-8"?>
<svg version="1.1" xmlns:xlink="http://www.w3.org/1999/xlink" width="10px" height="301px" preserveAspectRatio="xMidYMin meet" viewBox="980 1668  8 301" xmlns="http://www.w3.org/2000/svg">
  <path d="M 633 1814.5  L 659 1814.5  A 5 5 0 0 0 664.5 1809 L 664.5 1785  A 3 3 0 0 0 667.5 1782 A 3 3 0 0 0 664.5 1779 L 664.5 1678  A 5 5 0 0 1 669.5 1673.5 L 979 1673.5  A 5 5 0 0 1 984.5 1678.5 L 984.5 1959  A 5 5 0 0 0 989.5 1964.5 L 1009 1964.5  " stroke-width="1" stroke="#027db4" fill="none" />
  <path d="M 1008 1970.8  L 1014 1964.5  L 1008 1958.2  L 1008 1970.8  Z " fill-rule="nonzero" fill="#027db4" stroke="none" />
</svg>