<?xml version="1.0" encoding="utf-8"?>
<svg version="1.1" xmlns:xlink="http://www.w3.org/1999/xlink" width="34px" height="10px" preserveAspectRatio="xMinYMid meet" viewBox="980 645  34 8" xmlns="http://www.w3.org/2000/svg">
  <path d="M 643 501.5  L 660 501.5  A 5 5 0 0 0 665.5 496 L 665.5 465  A 3 3 0 0 0 668.5 462 A 3 3 0 0 0 665.5 459 L 665.5 371  A 5 5 0 0 1 670.5 366.5 L 980 366.5  A 5 5 0 0 1 985.5 371.5 L 985.5 644  A 5 5 0 0 0 990.5 649.5 L 1009 649.5  " stroke-width="1" stroke="#027db4" fill="none" />
  <path d="M 1008 655.8  L 1014 649.5  L 1008 643.2  L 1008 655.8  Z " fill-rule="nonzero" fill="#027db4" stroke="none" />
</svg>