<?xml version="1.0" encoding="utf-8"?>
<svg version="1.1" xmlns:xlink="http://www.w3.org/1999/xlink" width="19px" height="18px" preserveAspectRatio="xMinYMid meet" viewBox="723 1277  19 16" xmlns="http://www.w3.org/2000/svg">
  <path d="M 243 1285.5  L 274 1285.5  A 5 5 0 0 1 279.5 1290 L 279.5 1324  A 3 3 0 0 1 282.5 1327 A 3 3 0 0 1 279.5 1330 L 279.5 1341  A 5 5 0 0 0 284.5 1346.5 L 695 1346.5  A 5 5 0 0 0 700.5 1341.5 L 700.5 1290  A 5 5 0 0 1 705.5 1285.5 L 731 1285.5  " stroke-width="1" stroke="#027db4" fill="none" />
  <path d="M 730 1291.8  L 736 1285.5  L 730 1279.2  L 730 1291.8  Z " fill-rule="nonzero" fill="#027db4" stroke="none" />
</svg>