<?xml version="1.0" encoding="utf-8"?>
<svg version="1.1" xmlns:xlink="http://www.w3.org/1999/xlink" width="193px" height="10px" preserveAspectRatio="xMinYMid meet" viewBox="188 1363  193 8" xmlns="http://www.w3.org/2000/svg">
  <path d="M 376.5 1315  L 376.5 1324  A 3 3 0 0 1 379.5 1327 A 3 3 0 0 1 376.5 1330 L 376.5 1343  A 3 3 0 0 1 379.5 1346 A 3 3 0 0 1 376.5 1349 L 376.5 1362  A 5 5 0 0 1 371.5 1367.5 L 198 1367.5  A 5 5 0 0 0 193.5 1372.5 L 193.5 1383  " stroke-width="1" stroke="#027db4" fill="none" />
  <path d="M 187.2 1382  L 193.5 1388  L 199.8 1382  L 187.2 1382  Z " fill-rule="nonzero" fill="#027db4" stroke="none" />
</svg>